<svg width="24" height="24" viewBox="0 0 24 24" fill="none" xmlns="http://www.w3.org/2000/svg">
<path d="M12 11.5341C13.3255 11.5341 14.4 10.4596 14.4 9.13407C14.4 7.80859 13.3255 6.73407 12 6.73407C10.6745 6.73407 9.59998 7.80859 9.59998 9.13407C9.59998 10.4596 10.6745 11.5341 12 11.5341Z" stroke="#0F0F0F" stroke-width="2.6" stroke-linecap="round" stroke-linejoin="round"/>
<path d="M19.2 9.13406C19.2022 8.01654 18.9442 6.91384 18.4465 5.91327C17.9487 4.9127 17.2249 4.04173 16.3324 3.36929C15.4398 2.69685 14.4029 2.24142 13.3039 2.03903C12.2048 1.83665 11.0738 1.89288 10.0002 2.20327C8.92665 2.51366 7.94008 3.06968 7.1186 3.82733C6.29712 4.58498 5.66328 5.52345 5.26726 6.56845C4.87123 7.61345 4.72389 8.7363 4.8369 9.8481C4.94991 10.9599 5.32016 12.0301 5.91836 12.9741L6.83997 14.4141L12 22.0941L17.16 14.4141L18.0816 12.9741C18.812 11.8265 19.1999 10.4944 19.2 9.13406V9.13406Z" stroke="#0F0F0F" stroke-width="2.6" stroke-linecap="round" stroke-linejoin="round"/>
</svg>
